<?xml version="1.0" standalone="no"?>
<!DOCTYPE svg PUBLIC "-//W3C//DTD SVG 20010904//EN"
 "http://www.w3.org/TR/2001/REC-SVG-20010904/DTD/svg10.dtd">
<svg version="1.0" xmlns="http://www.w3.org/2000/svg"
 width="512.000000pt" height="512.000000pt" viewBox="0 0 512.000000 512.000000"
 preserveAspectRatio="xMidYMid meet">
<metadata>
Created by potrace 1.14, written by Peter Selinger 2001-2017
</metadata>
<g transform="translate(0.000000,512.000000) scale(0.100000,-0.100000)"
fill="#000000" stroke="none">
<path d="M365 5096 c-80 -26 -103 -37 -165 -86 -83 -64 -135 -135 -173 -237
l-22 -58 -2 -2130 c-2 -1725 0 -2140 10 -2185 42 -174 161 -308 334 -373 l58
-22 2120 -3 c1559 -2 2136 0 2180 8 196 38 363 201 404 395 7 34 10 711 8
2180 l-2 2130 -22 58 c-65 173 -199 293 -372 334 -45 10 -460 13 -2171 12
l-2115 0 -70 -23z"/>
</g>
</svg>
